<svg width="92pt" height="332pt" viewBox="0 0 92 332" xmlns="http://www.w3.org/2000/svg"><path d="M19.94 0h.92c1.79 3.36 3.07 6.95 4.86 10.31-1.49.49-2.98.98-4.5 1.39-1.39-3.01-2.85-6-3.91-9.15.64-.52 1.92-1.58 2.56-2.1l.07-.45zm6.37 20.88c1.19-.9 2.45-1.69 3.72-2.48 1.69 3.21 3.57 6.33 4.95 9.7-1.33.58-2.67 1.14-4.02 1.67-1.58-2.94-3.36-5.8-4.65-8.89zM36 37.9c1.36-.58 2.72-1.16 4.09-1.71 1.48 3.1 3.16 6.1 4.82 9.11-1.41.63-2.83 1.26-4.27 1.82-1.53-3.08-3.37-6.01-4.64-9.22zm9.33 17.66c1.21-.68 2.43-1.36 3.64-2.05 1.43 3.27 3.1 6.42 4.74 9.58-1.29.66-2.59 1.31-3.9 1.93-1.34-2.68-2.75-5.33-4.26-7.93-.05-.39-.16-1.15-.22-1.53zm8.79 18.57c.46-1.74 2.47-1.44 3.83-1.91 1.3 3.3 3.34 6.36 3.86 9.93-1.33.27-2.66.54-3.99.79-1.22-2.93-3.02-5.68-3.7-8.81zm7.55 18.79c.23-2 2.95-1.82 4.32-2.63 1.14 3.36 2.35 6.7 3.67 10-1.39.55-2.76 1.25-4.28 1.37-1.43-2.82-2.65-5.76-3.71-8.74zm6.72 17.88c1.35-.59 2.7-1.17 4.07-1.73 1.48 3.28 2.76 6.67 3.67 10.16-1.39.49-2.78.99-4.18 1.47-.96-3.38-2.23-6.65-3.56-9.9zm6.16 18.85c1.53-.48 3.07-.95 4.62-1.38.72 3.4 1.74 6.73 2.77 10.05l-4.17 1.32c-1.23-3.28-2.17-6.65-3.22-9.99zm5.01 18.9c1.55-.1 3.11-.18 4.67-.24.63 3.37 1.49 6.69 2.32 10.01-1.55.13-3.1.26-4.65.37-.74-3.39-1.58-6.76-2.34-10.14zm3.91 20.2c.62-.31 1.87-.92 2.49-1.23.56.25 1.69.75 2.25 1.01.4 3.06 1.05 6.09 1.52 9.14-1.63.4-3.25.83-4.91 1.1-.3-3.36-.53-6.74-1.35-10.02zm2.04 18.86c1.49-.09 2.96.02 4.41.32.72 3.39.77 6.9.44 10.35-1.35.05-2.69.11-4.04.16-.16-3.62-.75-7.2-.81-10.83zm.11 20.74c1.55-.34 3.1-.65 4.66-.92-.04 1.19-.09 2.39-.16 3.58-.63 2.39-.54 4.88-.57 7.33-1.46.02-2.91.03-4.35.05-.01-3.35.27-6.69.42-10.04zm-2.21 18.94l4.1.39c-.43 3.62-.26 7.7-2.34 10.82-1.29-.31-2.56-.68-3.82-1.11.35-3.43 1.21-6.77 2.06-10.1zm-8.24 29.05c1.27-3.25 2.18-6.61 3.26-9.92 1.02.1 3.07.32 4.09.42-.01 1.39-.22 2.75-.62 4.08-.74 2.29-1.62 4.54-2.55 6.76-1.39-.45-2.79-.89-4.18-1.34zm-5.51 11.5c.82-1.75 2.12-2.9 4.17-2.63.54.58 1.08 1.15 1.62 1.73-.84 1.68-1.76 3.32-2.52 5.04-.57 1.26-1.11 2.53-1.63 3.82-1.33-.25-2.67-.51-4-.74 0-2.62 1.46-4.86 2.36-7.22zm-8.23 14.57c.38.04 1.15.11 1.54.15.66.36 1.99 1.08 2.66 1.44-1.85 3.03-3.84 5.96-5.73 8.95-1.28-.63-2.54-1.29-3.8-1.93 1.11-3.25 3.36-5.87 5.33-8.61zm-19.38 22.37c1.79-3 4.66-5.06 7.06-7.52 1.26.87 2.5 1.76 3.73 2.68-2.55 2.55-5.04 5.16-7.7 7.6-1.02-.93-2.05-1.85-3.09-2.76zm-17 9.24c2.8-1.42 5.5-3.06 8.13-4.79.42.12 1.25.35 1.67.47.51.89 1.05 1.76 1.61 2.62-2.82 2.07-5.91 3.73-8.93 5.49-.84-1.25-1.7-2.5-2.48-3.79zm-10.16-.35c.78-.39 1.55-.78 2.3-1.22-.06 3.21 1.33 6 3.2 8.52-.87 2.91-1.13 5.9-.52 8.9-1.29-.2-2.58-.42-3.87-.64-1.32-.46-2.66-.82-4.01-1.19-3.68-1.2-7.71-1.66-11-3.84.45-.37 1.37-1.12 1.82-1.49 3.99-3.07 8.19-5.85 12.08-9.04z" fill="#6b8cbd"/></svg>